<svg width="81" height="55" viewBox="0 0 81 55" fill="none" xmlns="http://www.w3.org/2000/svg">
<path d="M2.63672 29.1113C2.63672 21.7285 4.46289 15.9766 8.11523 11.8555C11.7676 7.73437 16.8652 5.67383 23.4082 5.67383C25.9863 5.67383 28.3496 6.02539 30.498 6.72852C32.666 7.43164 34.7168 8.53516 36.6504 10.0391C37.9785 11.0352 39.0234 12.1777 39.7852 13.4668C40.5469 14.7363 40.9277 15.957 40.9277 17.1289C40.9277 18.418 40.5469 19.4531 39.7852 20.2344C39.0234 20.9961 37.998 21.377 36.709 21.377C35.9863 21.377 35.293 21.2305 34.6289 20.9375C33.9844 20.6445 33.3398 20.1953 32.6953 19.5898C32.3633 19.2773 31.9922 18.7988 31.582 18.1543C31.1914 17.5098 30.9082 17.0898 30.7324 16.8945C29.7949 15.8008 28.6816 14.9902 27.3926 14.4629C26.1035 13.916 24.6289 13.6426 22.9688 13.6426C19.4727 13.6426 16.7188 14.9512 14.707 17.5684C12.6953 20.1855 11.6895 23.7988 11.6895 28.4082C11.6895 33.1152 12.6953 36.7578 14.707 39.3359C16.7383 41.8945 19.6191 43.1738 23.3496 43.1738C24.9902 43.1738 26.4648 42.9199 27.7734 42.4121C29.082 41.8848 30.1465 41.1328 30.9668 40.1562C31.2988 39.7461 31.6309 39.2383 31.9629 38.6328C32.2949 38.0078 32.5195 37.6172 32.6367 37.4609C33.3789 36.5039 34.0625 35.8496 34.6875 35.498C35.3125 35.127 36.0254 34.9414 36.8262 34.9414C38.0176 34.9414 39.0234 35.332 39.8438 36.1133C40.6836 36.8945 41.1035 37.8418 41.1035 38.9551C41.1035 40.0488 40.7324 41.25 39.9902 42.5586C39.2676 43.8672 38.3008 45.0684 37.0898 46.1621C35.0977 47.9199 32.9688 49.1992 30.7031 50C28.457 50.8008 25.8398 51.2012 22.8516 51.2012C16.582 51.2012 11.6406 49.2383 8.02734 45.3125C4.43359 41.3672 2.63672 35.9668 2.63672 29.1113ZM68.3496 45.9863C67.627 48.0566 66.8945 49.3359 66.1523 49.8242C65.4297 50.293 64.2578 50.5273 62.6367 50.5273C59.8633 50.5273 57.9785 49.082 56.9824 46.1914C56.9629 46.1523 56.9531 46.123 56.9531 46.1035L45.6152 12.8516C45.498 12.5195 45.4004 12.1875 45.3223 11.8555C45.2637 11.5234 45.2344 11.1816 45.2344 10.8301C45.2344 9.44336 45.6641 8.33008 46.5234 7.49023C47.3828 6.63086 48.4961 6.20117 49.8633 6.20117C51.0547 6.20117 52.002 6.57227 52.7051 7.31445C53.4277 8.05664 54.0625 9.36523 54.6094 11.2402L62.6367 39.1309L70.6934 11.2988C71.1816 9.63867 71.8555 8.38867 72.7148 7.54883C73.5742 6.68945 74.6191 6.25977 75.8496 6.25977C77.0996 6.25977 78.1152 6.65039 78.8965 7.43164C79.6973 8.21289 80.0977 9.21875 80.0977 10.4492C80.0977 10.8398 80.0586 11.2402 79.9805 11.6504C79.9219 12.041 79.8242 12.4414 79.6875 12.8516L68.3496 45.9863Z" fill="#9F5BFF"/>
</svg>
