<svg width="251" height="107" viewBox="0 0 251 107" fill="none" xmlns="http://www.w3.org/2000/svg">
<path d="M12.7734 45.2539C12.7734 47.0703 12.4414 48.4082 11.7773 49.2676C11.1133 50.1074 10.0684 50.5273 8.64258 50.5273C7.17773 50.5273 6.11328 50.1172 5.44922 49.2969C4.78516 48.457 4.45312 47.1094 4.45312 45.2539V13.0273C4.45312 10.4102 4.84375 8.63281 5.625 7.69531C6.40625 6.73828 7.8125 6.25977 9.84375 6.25977H12.9492C14.707 6.25977 15.9766 6.60156 16.7578 7.28516C17.5586 7.94922 18.3301 9.74609 19.0723 12.6758L26.1621 39.6875L32.9883 13.2324C33.7695 10.2441 34.5508 8.33984 35.332 7.51953C36.1328 6.67969 37.3145 6.25977 38.877 6.25977H42.4219C44.4531 6.25977 45.8594 6.73828 46.6406 7.69531C47.4219 8.65234 47.8125 10.4297 47.8125 13.0273V45.2539C47.8125 47.0703 47.4707 48.4082 46.7871 49.2676C46.123 50.1074 45.0879 50.5273 43.6816 50.5273C42.2168 50.5273 41.1523 50.1074 40.4883 49.2676C39.8242 48.4277 39.4922 47.0898 39.4922 45.2539V15.1953L32.0508 44.6094C31.4648 46.8164 30.7324 48.3594 29.8535 49.2383C28.9941 50.0977 27.7637 50.5273 26.1621 50.5273C24.5996 50.5273 23.3594 50.0781 22.4414 49.1797C21.5234 48.2617 20.7812 46.7383 20.2148 44.6094L12.7734 15.1953V45.2539ZM84.9609 42.0898C86.5625 42.0898 87.7637 42.4219 88.5645 43.0859C89.3652 43.7305 89.7656 44.7168 89.7656 46.0449C89.7656 47.334 89.3555 48.3203 88.5352 49.0039C87.7344 49.668 86.543 50 84.9609 50H62.168C60.1367 50 58.7305 49.5312 57.9492 48.5938C57.168 47.6367 56.7773 45.8496 56.7773 43.2324V13.6426C56.7773 11.0059 57.168 9.21875 57.9492 8.28125C58.7305 7.32422 60.1367 6.8457 62.168 6.8457H83.8184C85.4004 6.8457 86.5918 7.16797 87.3926 7.8125C88.2129 8.45703 88.623 9.4043 88.623 10.6543C88.623 11.8652 88.2129 12.7832 87.3926 13.4082C86.5918 14.0332 85.4004 14.3457 83.8184 14.3457H65.5371V23.5449H81.9727C83.5547 23.5449 84.7363 23.8574 85.5176 24.4824C86.3184 25.0879 86.7188 26.0156 86.7188 27.2656C86.7188 28.457 86.3086 29.3652 85.4883 29.9902C84.6875 30.6152 83.5156 30.9277 81.9727 30.9277H65.5371V42.0898H84.9609ZM104.678 14.4336V42.207H111.797C115.918 42.207 118.896 41.1328 120.732 38.9844C122.588 36.8164 123.516 33.3105 123.516 28.4668C123.516 23.6426 122.656 20.0977 120.938 17.832C119.219 15.5664 116.533 14.4336 112.881 14.4336H104.678ZM101.367 50C99.3359 50 97.9297 49.5312 97.1484 48.5938C96.3672 47.6367 95.9766 45.8496 95.9766 43.2324V13.6426C95.9766 11.0059 96.3672 9.21875 97.1484 8.28125C97.9297 7.32422 99.3359 6.8457 101.367 6.8457H112.881C119.502 6.8457 124.434 8.63281 127.676 12.207C130.938 15.7812 132.568 21.2012 132.568 28.4668C132.568 32.4121 131.963 35.8887 130.752 38.8965C129.561 41.9043 127.822 44.3262 125.537 46.1621C123.818 47.5293 121.865 48.5156 119.678 49.1211C117.49 49.707 114.424 50 110.479 50H101.367ZM171.914 29.1113C171.914 21.7285 173.74 15.9766 177.393 11.8555C181.045 7.73437 186.143 5.67383 192.686 5.67383C195.264 5.67383 197.627 6.02539 199.775 6.72852C201.943 7.43164 203.994 8.53516 205.928 10.0391C207.256 11.0352 208.301 12.1777 209.062 13.4668C209.824 14.7363 210.205 15.957 210.205 17.1289C210.205 18.418 209.824 19.4531 209.062 20.2344C208.301 20.9961 207.275 21.377 205.986 21.377C205.264 21.377 204.57 21.2305 203.906 20.9375C203.262 20.6445 202.617 20.1953 201.973 19.5898C201.641 19.2773 201.27 18.7988 200.859 18.1543C200.469 17.5098 200.186 17.0898 200.01 16.8945C199.072 15.8008 197.959 14.9902 196.67 14.4629C195.381 13.916 193.906 13.6426 192.246 13.6426C188.75 13.6426 185.996 14.9512 183.984 17.5684C181.973 20.1855 180.967 23.7988 180.967 28.4082C180.967 33.1152 181.973 36.7578 183.984 39.3359C186.016 41.8945 188.896 43.1738 192.627 43.1738C194.268 43.1738 195.742 42.9199 197.051 42.4121C198.359 41.8848 199.424 41.1328 200.244 40.1562C200.576 39.7461 200.908 39.2383 201.24 38.6328C201.572 38.0078 201.797 37.6172 201.914 37.4609C202.656 36.5039 203.34 35.8496 203.965 35.498C204.59 35.127 205.303 34.9414 206.104 34.9414C207.295 34.9414 208.301 35.332 209.121 36.1133C209.961 36.8945 210.381 37.8418 210.381 38.9551C210.381 40.0488 210.01 41.25 209.268 42.5586C208.545 43.8672 207.578 45.0684 206.367 46.1621C204.375 47.9199 202.246 49.1992 199.98 50C197.734 50.8008 195.117 51.2012 192.129 51.2012C185.859 51.2012 180.918 49.2383 177.305 45.3125C173.711 41.3672 171.914 35.9668 171.914 29.1113ZM237.627 45.9863C236.904 48.0566 236.172 49.3359 235.43 49.8242C234.707 50.293 233.535 50.5273 231.914 50.5273C229.141 50.5273 227.256 49.082 226.26 46.1914C226.24 46.1523 226.23 46.123 226.23 46.1035L214.893 12.8516C214.775 12.5195 214.678 12.1875 214.6 11.8555C214.541 11.5234 214.512 11.1816 214.512 10.8301C214.512 9.44336 214.941 8.33008 215.801 7.49023C216.66 6.63086 217.773 6.20117 219.141 6.20117C220.332 6.20117 221.279 6.57227 221.982 7.31445C222.705 8.05664 223.34 9.36523 223.887 11.2402L231.914 39.1309L239.971 11.2988C240.459 9.63867 241.133 8.38867 241.992 7.54883C242.852 6.68945 243.896 6.25977 245.127 6.25977C246.377 6.25977 247.393 6.65039 248.174 7.43164C248.975 8.21289 249.375 9.21875 249.375 10.4492C249.375 10.8398 249.336 11.2402 249.258 11.6504C249.199 12.041 249.102 12.4414 248.965 12.8516L237.627 45.9863ZM12.3018 83.8813V94.5967H22.2935C24.6499 94.5967 26.3662 94.1699 27.4424 93.3164C28.5186 92.4629 29.0566 91.1177 29.0566 89.2808C29.0566 87.3696 28.5278 85.9966 27.4702 85.1616C26.4126 84.3081 24.6685 83.8813 22.2378 83.8813H12.3018ZM12.3018 68.1284V76.8677H21.9316C24.0098 76.8677 25.5312 76.5151 26.4961 75.8101C27.4609 75.0864 27.9434 73.9546 27.9434 72.4146C27.9434 70.9116 27.4702 69.8262 26.5239 69.1582C25.5962 68.4717 24.0469 68.1284 21.876 68.1284H12.3018ZM9.35156 102C7.42188 102 6.08594 101.555 5.34375 100.664C4.60156 99.7549 4.23047 98.0571 4.23047 95.5708V67.4604C4.23047 64.9556 4.60156 63.2578 5.34375 62.3672C6.08594 61.458 7.42188 61.0034 9.35156 61.0034H23.5459C27.7393 61.0034 30.9307 61.894 33.1201 63.6753C35.3281 65.438 36.4321 68.0078 36.4321 71.3848C36.4321 73.4629 36.0239 75.1978 35.2075 76.5894C34.3911 77.981 33.1665 79.0571 31.5337 79.8179C33.6489 80.6714 35.2261 81.9053 36.2651 83.5195C37.3228 85.1152 37.8516 87.1099 37.8516 89.5034C37.8516 93.4927 36.5527 96.5728 33.9551 98.7437C31.3574 100.915 27.6743 102 22.9058 102H9.35156ZM44.1138 64.9556C44.1138 63.4341 44.457 62.3022 45.1436 61.5601C45.8486 60.8179 46.9155 60.4468 48.3442 60.4468C49.7544 60.4468 50.8213 60.8271 51.5449 61.5879C52.2686 62.3301 52.6304 63.4526 52.6304 64.9556V86.6089C52.6304 89.7817 53.2612 92.1011 54.5229 93.5669C55.7847 95.0142 57.7886 95.7378 60.5347 95.7378C63.3179 95.7378 65.3403 95.0142 66.6021 93.5669C67.8823 92.1196 68.5225 89.8003 68.5225 86.6089V64.9556C68.5225 63.4341 68.8657 62.3022 69.5522 61.5601C70.2573 60.8179 71.3149 60.4468 72.7251 60.4468C74.1353 60.4468 75.1929 60.8271 75.8979 61.5879C76.603 62.3301 76.9556 63.4526 76.9556 64.9556V87.5273C76.9556 92.5557 75.5454 96.415 72.7251 99.1055C69.9233 101.796 65.8784 103.141 60.5903 103.141C55.2651 103.141 51.1831 101.805 48.3442 99.1333C45.5239 96.4429 44.1138 92.5742 44.1138 87.5273V64.9556ZM85.5 64.9556C85.5 63.4341 85.8433 62.3022 86.5298 61.5601C87.2349 60.8179 88.2925 60.4468 89.7026 60.4468C91.1128 60.4468 92.1704 60.8271 92.8755 61.5879C93.5806 62.3301 93.9331 63.4526 93.9331 64.9556V98.02C93.9331 99.5229 93.5806 100.646 92.8755 101.388C92.189 102.13 91.1313 102.501 89.7026 102.501C88.311 102.501 87.2627 102.13 86.5576 101.388C85.8525 100.627 85.5 99.5044 85.5 98.02V64.9556ZM107.877 102C105.947 102 104.611 101.555 103.869 100.664C103.127 99.7549 102.756 98.0571 102.756 95.5708V64.9556C102.756 63.5269 103.118 62.4229 103.841 61.6436C104.583 60.8457 105.623 60.4468 106.958 60.4468C108.369 60.4468 109.426 60.8271 110.131 61.5879C110.836 62.3301 111.189 63.4526 111.189 64.9556V94.4854H126.691C128.306 94.4854 129.549 94.8008 130.421 95.4316C131.312 96.0625 131.757 96.9624 131.757 98.1313C131.757 99.4858 131.358 100.469 130.56 101.082C129.762 101.694 128.473 102 126.691 102H107.877ZM144.086 68.2119V94.5967H150.85C154.765 94.5967 157.594 93.5762 159.338 91.5352C161.101 89.4756 161.982 86.145 161.982 81.5435C161.982 76.9604 161.166 73.5928 159.533 71.4404C157.9 69.2881 155.349 68.2119 151.879 68.2119H144.086ZM140.941 102C139.012 102 137.676 101.555 136.934 100.664C136.191 99.7549 135.82 98.0571 135.82 95.5708V67.4604C135.82 64.9556 136.191 63.2578 136.934 62.3672C137.676 61.458 139.012 61.0034 140.941 61.0034H151.879C158.169 61.0034 162.854 62.7012 165.935 66.0967C169.033 69.4922 170.583 74.6411 170.583 81.5435C170.583 85.2915 170.007 88.5942 168.857 91.4517C167.725 94.3091 166.074 96.6099 163.903 98.354C162.27 99.6528 160.415 100.59 158.336 101.165C156.258 101.722 153.345 102 149.597 102H140.941ZM204.064 94.4854C205.586 94.4854 206.727 94.8008 207.488 95.4316C208.249 96.0439 208.629 96.981 208.629 98.2427C208.629 99.4673 208.239 100.404 207.46 101.054C206.699 101.685 205.567 102 204.064 102H182.411C180.481 102 179.146 101.555 178.403 100.664C177.661 99.7549 177.29 98.0571 177.29 95.5708V67.4604C177.29 64.9556 177.661 63.2578 178.403 62.3672C179.146 61.458 180.481 61.0034 182.411 61.0034H202.979C204.482 61.0034 205.614 61.3096 206.375 61.9219C207.154 62.5342 207.543 63.4341 207.543 64.6216C207.543 65.772 207.154 66.644 206.375 67.2378C205.614 67.8315 204.482 68.1284 202.979 68.1284H185.612V76.8677H201.226C202.729 76.8677 203.851 77.1646 204.593 77.7583C205.354 78.3335 205.734 79.2148 205.734 80.4023C205.734 81.5342 205.345 82.397 204.565 82.9907C203.805 83.5845 202.691 83.8813 201.226 83.8813H185.612V94.4854H204.064ZM222.962 68.0728V78.9272H232.871C235.023 78.9272 236.6 78.4912 237.602 77.6191C238.623 76.7471 239.133 75.374 239.133 73.5C239.133 71.7188 238.632 70.3735 237.63 69.4644C236.646 68.5366 235.19 68.0728 233.26 68.0728H222.962ZM222.962 98.02C222.962 99.5229 222.61 100.646 221.905 101.388C221.218 102.13 220.161 102.501 218.732 102.501C217.322 102.501 216.264 102.13 215.559 101.388C214.873 100.627 214.529 99.5044 214.529 98.02V67.4604C214.529 64.9556 214.9 63.2578 215.643 62.3672C216.385 61.458 217.721 61.0034 219.65 61.0034H234.401C238.873 61.0034 242.185 61.959 244.337 63.8701C246.49 65.7812 247.566 68.7036 247.566 72.6372C247.566 75.1421 247.037 77.2295 245.979 78.8994C244.94 80.5693 243.438 81.7104 241.471 82.3228C243.011 82.8423 244.18 83.6587 244.978 84.772C245.775 85.8853 246.258 87.3696 246.425 89.2251C246.499 89.9858 246.555 90.9785 246.592 92.2031C246.629 93.4277 246.694 94.2627 246.787 94.708C246.861 95.1904 247 95.8955 247.204 96.8232C247.408 97.7324 247.51 98.3726 247.51 98.7437C247.51 99.9126 247.13 100.84 246.369 101.527C245.608 102.213 244.588 102.557 243.308 102.557C241.545 102.557 240.283 102.056 239.522 101.054C238.78 100.033 238.27 97.4448 237.992 93.2886C237.769 90.0044 237.231 87.9819 236.377 87.2212C235.542 86.4419 234.049 86.0522 231.896 86.0522H222.962V98.02Z" fill="black"/>
<path d="M145.648 28.0625C145.648 26.2656 146.299 24.7161 147.602 23.4141C148.904 22.0859 150.466 21.4219 152.289 21.4219C154.164 21.4219 155.753 22.0729 157.055 23.375C158.357 24.651 159.008 26.2135 159.008 28.0625C159.008 29.9115 158.344 31.5 157.016 32.8281C155.688 34.1302 154.112 34.7812 152.289 34.7812C150.492 34.7812 148.93 34.1172 147.602 32.7891C146.299 31.4609 145.648 29.8854 145.648 28.0625Z" fill="#9F5BFF"/>
</svg>
